<svg width="54" height="54" viewBox="0 0 54 54" fill="none" xmlns="http://www.w3.org/2000/svg">
<rect x="2" y="37" width="50" height="13" rx="3" fill="#CDCECE"/>
<rect x="21" y="40" width="23" height="3" fill="#E6E9EA"/>
<rect x="21" y="44" width="14" height="3" fill="#E6E9EA"/>
<circle cx="11.5" cy="43.5" r="4.5" fill="#E6E9EA"/>
<rect x="2" y="20" width="50" height="14" rx="3" fill="#A0A2A3"/>
<rect x="21" y="23" width="24" height="3" fill="#E6E9EA"/>
<rect x="21" y="28" width="14" height="3" fill="#E6E9EA"/>
<path fill-rule="evenodd" clip-rule="evenodd" d="M16.6954 24.2907L10.2656 30.1151L6.40456 27.2535L7.59543 25.6467L10.1386 27.5316L15.3527 22.8084L16.6954 24.2907Z" fill="white"/>
<rect x="2" y="3" width="50" height="14" rx="4" fill="#A0A2A3"/>
<path fill-rule="evenodd" clip-rule="evenodd" d="M16.5935 7.75864L10.2344 13.2197L6.42508 10.5431L7.57491 8.90669L10.1115 10.689L15.2905 6.24136L16.5935 7.75864Z" fill="white"/>
<rect x="21" y="6" width="24" height="3" fill="#E6E9EA"/>
<rect x="21" y="11" width="14" height="3" fill="#E6E9EA"/>
</svg>
