<svg width="23" height="23" viewBox="0 0 23 23" fill="none" xmlns="http://www.w3.org/2000/svg">
<path d="M20.3708 4.04336L22.7071 1.70706L21.2929 0.292847L18.9566 2.62915C15.79 0.159154 11.2054 0.380416 8.2929 3.29292L3.00005 8.58577L1.70712 7.29285L0.292908 8.70706L4.58582 13L4.29289 13.2929C2.7978 14.788 2.7978 17.212 4.29289 18.7071C5.78799 20.2022 8.21201 20.2022 9.70711 18.7071L10 18.4142L14.2929 22.7071L15.7071 21.2928L14.4143 20L19.7071 14.7071C22.6196 11.7946 22.8409 7.20992 20.3708 4.04336ZM5.70711 14.7071L6.00003 14.4142L8.58582 17L8.29289 17.2929C7.57885 18.0069 6.42115 18.0069 5.70711 17.2929C4.99306 16.5788 4.99306 15.4212 5.70711 14.7071ZM9.70711 4.70713C12.078 2.33623 15.922 2.33623 18.2929 4.70713C20.6638 7.07803 20.6638 10.922 18.2929 13.2929L13 18.5858L4.41426 9.99999L9.70711 4.70713Z" fill="white"/>
</svg>
